<svg viewBox="0 0 310 110" fill="none" xmlns="http://www.w3.org/2000/svg">
<path d="M305 95V15C305 9.47715 300.523 5 295 5L15 5C9.47714 5 5 9.47715 5 15V95C5 100.523 9.47714 105 15 105L295 105C300.523 105 305 100.523 305 95Z" fill="black" stroke="black" stroke-width="10"/>
<path d="M215 55C215 77.0914 232.909 95 255 95C277.091 95 295 77.0914 295 55C295 32.9086 277.091 15 255 15C232.909 15 215 32.9086 215 55Z" fill="#808080"/>
<path d="M115 55C115 77.0914 132.909 95 155 95C177.091 95 195 77.0914 195 55C195 32.9086 177.091 15 155 15C132.909 15 115 32.9086 115 55Z" fill="#FFFF00"/>
<path d="M15 55C15 77.0914 32.9086 95 55 95C77.0914 95 95 77.0914 95 55C95 32.9086 77.0914 15 55 15C32.9086 15 15 32.9086 15 55Z" fill="#808080"/>
</svg>
